<mxfile host="Electron" agent="Mozilla/5.0 (Windows NT 10.0; Win64; x64) AppleWebKit/537.36 (KHTML, like Gecko) draw.io/26.1.1 Chrome/132.0.6834.210 Electron/34.3.3 Safari/537.36" version="26.1.1">
  <diagram name="PÃ¡gina-1" id="2LCqH3qQtYHIfkcQPNYK">
    <mxGraphModel dx="1843" dy="2056" grid="1" gridSize="10" guides="1" tooltips="1" connect="1" arrows="1" fold="1" page="1" pageScale="1" pageWidth="827" pageHeight="1169" math="0" shadow="0">
      <root>
        <mxCell id="0" />
        <mxCell id="1" parent="0" />
        <mxCell id="qHdUSr_5p1jmeupaoRFm-107" value="" style="shape=rect;html=1;verticalAlign=top;fontStyle=1;whiteSpace=wrap;align=center;" vertex="1" parent="1">
          <mxGeometry x="80" y="-100" width="1540" height="1010" as="geometry" />
        </mxCell>
        <mxCell id="qHdUSr_5p1jmeupaoRFm-1" value="Cliente&lt;div&gt;&lt;br&gt;&lt;/div&gt;" style="shape=umlActor;html=1;verticalLabelPosition=bottom;verticalAlign=top;align=center;" vertex="1" parent="1">
          <mxGeometry x="20" y="70" width="30" height="70" as="geometry" />
        </mxCell>
        <mxCell id="qHdUSr_5p1jmeupaoRFm-2" value="Entrenador&lt;div&gt;&lt;br&gt;&lt;/div&gt;" style="shape=umlActor;html=1;verticalLabelPosition=bottom;verticalAlign=top;align=center;" vertex="1" parent="1">
          <mxGeometry x="30" y="240" width="30" height="60" as="geometry" />
        </mxCell>
        <mxCell id="qHdUSr_5p1jmeupaoRFm-39" value="" style="edgeStyle=none;html=1;endArrow=block;endFill=0;endSize=12;verticalAlign=bottom;rounded=0;entryX=0;entryY=0.5;entryDx=0;entryDy=0;exitX=0.5;exitY=0.5;exitDx=0;exitDy=0;exitPerimeter=0;" edge="1" parent="1" source="qHdUSr_5p1jmeupaoRFm-1" target="qHdUSr_5p1jmeupaoRFm-40">
          <mxGeometry width="160" relative="1" as="geometry">
            <mxPoint x="50" y="160" as="sourcePoint" />
            <mxPoint x="210" y="160" as="targetPoint" />
            <Array as="points" />
          </mxGeometry>
        </mxCell>
        <mxCell id="qHdUSr_5p1jmeupaoRFm-44" value="" style="edgeStyle=none;html=1;endArrow=block;endFill=0;endSize=12;verticalAlign=bottom;rounded=0;" edge="1" parent="1" target="qHdUSr_5p1jmeupaoRFm-40">
          <mxGeometry width="160" relative="1" as="geometry">
            <mxPoint x="50" y="290" as="sourcePoint" />
            <mxPoint x="210" y="290" as="targetPoint" />
          </mxGeometry>
        </mxCell>
        <mxCell id="qHdUSr_5p1jmeupaoRFm-38" value="" style="edgeStyle=none;html=1;endArrow=block;endFill=0;endSize=12;verticalAlign=bottom;rounded=0;entryX=0.445;entryY=0.934;entryDx=0;entryDy=0;entryPerimeter=0;" edge="1" parent="1" source="qHdUSr_5p1jmeupaoRFm-13" target="qHdUSr_5p1jmeupaoRFm-40">
          <mxGeometry width="160" relative="1" as="geometry">
            <mxPoint x="60" y="390" as="sourcePoint" />
            <mxPoint x="220" y="390" as="targetPoint" />
          </mxGeometry>
        </mxCell>
        <mxCell id="qHdUSr_5p1jmeupaoRFm-13" value="&lt;div&gt;Administrador&lt;/div&gt;&lt;div&gt;&lt;br&gt;&lt;/div&gt;" style="shape=umlActor;html=1;verticalLabelPosition=bottom;verticalAlign=top;align=center;" vertex="1" parent="1">
          <mxGeometry x="30" y="420" width="30" height="60" as="geometry" />
        </mxCell>
        <mxCell id="qHdUSr_5p1jmeupaoRFm-40" value="Ingreso a Plataforma" style="ellipse;whiteSpace=wrap;html=1;" vertex="1" parent="1">
          <mxGeometry x="240" y="60" width="140" height="70" as="geometry" />
        </mxCell>
        <mxCell id="qHdUSr_5p1jmeupaoRFm-96" value="&lt;span style=&quot;font-size: 12px;&quot;&gt;Si tiene usuario&lt;/span&gt;" style="edgeStyle=none;html=1;startArrow=open;endArrow=none;startSize=12;verticalAlign=bottom;dashed=1;labelBackgroundColor=none;rounded=0;entryX=1;entryY=0.5;entryDx=0;entryDy=0;" edge="1" parent="1" source="qHdUSr_5p1jmeupaoRFm-10" target="qHdUSr_5p1jmeupaoRFm-40">
          <mxGeometry width="160" relative="1" as="geometry">
            <mxPoint x="271" y="547" as="sourcePoint" />
            <mxPoint x="295" y="370" as="targetPoint" />
          </mxGeometry>
        </mxCell>
        <mxCell id="qHdUSr_5p1jmeupaoRFm-93" value="&lt;span style=&quot;font-size: 12px;&quot;&gt;Si no tiene usuario&lt;/span&gt;" style="edgeStyle=none;html=1;startArrow=open;endArrow=none;startSize=12;verticalAlign=bottom;dashed=1;labelBackgroundColor=none;rounded=0;exitX=0.65;exitY=-0.039;exitDx=0;exitDy=0;exitPerimeter=0;" edge="1" parent="1" source="qHdUSr_5p1jmeupaoRFm-6" target="qHdUSr_5p1jmeupaoRFm-40">
          <mxGeometry width="160" relative="1" as="geometry">
            <mxPoint x="270" y="410" as="sourcePoint" />
            <mxPoint x="430" y="410" as="targetPoint" />
          </mxGeometry>
        </mxCell>
        <mxCell id="qHdUSr_5p1jmeupaoRFm-10" value="Validar datos" style="ellipse;whiteSpace=wrap;html=1;" vertex="1" parent="1">
          <mxGeometry x="440" y="30" width="140" height="70" as="geometry" />
        </mxCell>
        <mxCell id="qHdUSr_5p1jmeupaoRFm-62" value="Cliente" style="edgeStyle=none;html=1;endArrow=open;verticalAlign=bottom;dashed=1;labelBackgroundColor=none;rounded=0;entryX=0;entryY=0.5;entryDx=0;entryDy=0;" edge="1" parent="1" source="qHdUSr_5p1jmeupaoRFm-10" target="qHdUSr_5p1jmeupaoRFm-61">
          <mxGeometry width="160" relative="1" as="geometry">
            <mxPoint x="600" y="324.33000000000004" as="sourcePoint" />
            <mxPoint x="760" y="324.33000000000004" as="targetPoint" />
          </mxGeometry>
        </mxCell>
        <mxCell id="qHdUSr_5p1jmeupaoRFm-82" value="Si es administrador" style="edgeStyle=none;html=1;endArrow=open;verticalAlign=bottom;dashed=1;labelBackgroundColor=none;rounded=0;exitX=0.718;exitY=0.888;exitDx=0;exitDy=0;exitPerimeter=0;entryX=0.074;entryY=0.221;entryDx=0;entryDy=0;entryPerimeter=0;" edge="1" parent="1" source="qHdUSr_5p1jmeupaoRFm-10" target="qHdUSr_5p1jmeupaoRFm-59">
          <mxGeometry width="160" relative="1" as="geometry">
            <mxPoint x="780" y="570" as="sourcePoint" />
            <mxPoint x="940" y="570" as="targetPoint" />
          </mxGeometry>
        </mxCell>
        <mxCell id="qHdUSr_5p1jmeupaoRFm-69" value="Si es entrenador" style="edgeStyle=none;html=1;endArrow=open;verticalAlign=bottom;dashed=1;labelBackgroundColor=none;rounded=0;exitX=0.924;exitY=0.811;exitDx=0;exitDy=0;exitPerimeter=0;" edge="1" parent="1" source="qHdUSr_5p1jmeupaoRFm-10" target="qHdUSr_5p1jmeupaoRFm-60">
          <mxGeometry width="160" relative="1" as="geometry">
            <mxPoint x="580" y="340" as="sourcePoint" />
            <mxPoint x="740" y="340" as="targetPoint" />
          </mxGeometry>
        </mxCell>
        <mxCell id="qHdUSr_5p1jmeupaoRFm-57" value="Si se registra el usuario" style="edgeStyle=none;html=1;startArrow=open;endArrow=none;startSize=12;verticalAlign=bottom;dashed=1;labelBackgroundColor=none;rounded=0;exitX=0.5;exitY=1;exitDx=0;exitDy=0;entryX=0.638;entryY=0.006;entryDx=0;entryDy=0;entryPerimeter=0;" edge="1" parent="1" source="qHdUSr_5p1jmeupaoRFm-10" target="qHdUSr_5p1jmeupaoRFm-81">
          <mxGeometry width="160" relative="1" as="geometry">
            <mxPoint x="540" y="350" as="sourcePoint" />
            <mxPoint x="560" y="520" as="targetPoint" />
          </mxGeometry>
        </mxCell>
        <mxCell id="qHdUSr_5p1jmeupaoRFm-61" value="Dashboard" style="ellipse;whiteSpace=wrap;html=1;" vertex="1" parent="1">
          <mxGeometry x="827" y="20" width="140" height="70" as="geometry" />
        </mxCell>
        <mxCell id="qHdUSr_5p1jmeupaoRFm-67" value="" style="edgeStyle=none;html=1;startArrow=open;endArrow=none;startSize=12;verticalAlign=bottom;dashed=1;labelBackgroundColor=none;rounded=0;" edge="1" parent="1" source="qHdUSr_5p1jmeupaoRFm-16">
          <mxGeometry width="160" relative="1" as="geometry">
            <mxPoint x="1030" y="299.33000000000004" as="sourcePoint" />
            <mxPoint x="970" y="55" as="targetPoint" />
          </mxGeometry>
        </mxCell>
        <mxCell id="qHdUSr_5p1jmeupaoRFm-81" value="Insercion en la base de datos" style="ellipse;whiteSpace=wrap;html=1;" vertex="1" parent="1">
          <mxGeometry x="410" y="210" width="140" height="70" as="geometry" />
        </mxCell>
        <mxCell id="qHdUSr_5p1jmeupaoRFm-88" value="Si registro el administrador" style="edgeStyle=none;html=1;endArrow=open;verticalAlign=bottom;dashed=1;labelBackgroundColor=none;rounded=0;exitX=1;exitY=1;exitDx=0;exitDy=0;" edge="1" parent="1" source="qHdUSr_5p1jmeupaoRFm-81" target="qHdUSr_5p1jmeupaoRFm-86">
          <mxGeometry width="160" relative="1" as="geometry">
            <mxPoint x="530" y="480" as="sourcePoint" />
            <mxPoint x="690" y="480" as="targetPoint" />
          </mxGeometry>
        </mxCell>
        <mxCell id="qHdUSr_5p1jmeupaoRFm-80" value="" style="edgeStyle=none;html=1;endArrow=open;verticalAlign=bottom;dashed=1;labelBackgroundColor=none;rounded=0;" edge="1" parent="1" source="qHdUSr_5p1jmeupaoRFm-55" target="qHdUSr_5p1jmeupaoRFm-81">
          <mxGeometry width="160" relative="1" as="geometry">
            <mxPoint x="780" y="570" as="sourcePoint" />
            <mxPoint x="940" y="570" as="targetPoint" />
          </mxGeometry>
        </mxCell>
        <mxCell id="qHdUSr_5p1jmeupaoRFm-6" value="Registro" style="ellipse;whiteSpace=wrap;html=1;" vertex="1" parent="1">
          <mxGeometry x="200" y="380" width="140" height="70" as="geometry" />
        </mxCell>
        <mxCell id="qHdUSr_5p1jmeupaoRFm-54" value="Ingreso de datos" style="edgeStyle=none;html=1;endArrow=open;verticalAlign=bottom;dashed=1;labelBackgroundColor=none;rounded=0;exitX=1;exitY=0.5;exitDx=0;exitDy=0;" edge="1" parent="1" source="qHdUSr_5p1jmeupaoRFm-6" target="qHdUSr_5p1jmeupaoRFm-55">
          <mxGeometry width="160" relative="1" as="geometry">
            <mxPoint x="390" y="250" as="sourcePoint" />
            <mxPoint x="550" y="250" as="targetPoint" />
          </mxGeometry>
        </mxCell>
        <mxCell id="qHdUSr_5p1jmeupaoRFm-60" value="Dashboard Entrenador" style="ellipse;whiteSpace=wrap;html=1;" vertex="1" parent="1">
          <mxGeometry x="800" y="100" width="140" height="70" as="geometry" />
        </mxCell>
        <mxCell id="qHdUSr_5p1jmeupaoRFm-70" value="" style="edgeStyle=none;html=1;startArrow=open;endArrow=none;startSize=12;verticalAlign=bottom;dashed=1;labelBackgroundColor=none;rounded=0;exitX=0;exitY=0;exitDx=0;exitDy=0;" edge="1" parent="1" source="qHdUSr_5p1jmeupaoRFm-109" target="qHdUSr_5p1jmeupaoRFm-60">
          <mxGeometry width="160" relative="1" as="geometry">
            <mxPoint x="780" y="540" as="sourcePoint" />
            <mxPoint x="940" y="540" as="targetPoint" />
          </mxGeometry>
        </mxCell>
        <mxCell id="qHdUSr_5p1jmeupaoRFm-16" value="Reservar clases" style="ellipse;whiteSpace=wrap;html=1;" vertex="1" parent="1">
          <mxGeometry x="1160" y="10" width="140" height="70" as="geometry" />
        </mxCell>
        <mxCell id="qHdUSr_5p1jmeupaoRFm-66" value="Si no asiste" style="edgeStyle=none;html=1;startArrow=open;endArrow=none;startSize=12;verticalAlign=bottom;dashed=1;labelBackgroundColor=none;rounded=0;entryX=1;entryY=0.5;entryDx=0;entryDy=0;" edge="1" parent="1" source="qHdUSr_5p1jmeupaoRFm-18" target="qHdUSr_5p1jmeupaoRFm-16">
          <mxGeometry width="160" relative="1" as="geometry">
            <mxPoint x="1160" y="280" as="sourcePoint" />
            <mxPoint x="1320" y="280" as="targetPoint" />
          </mxGeometry>
        </mxCell>
        <mxCell id="qHdUSr_5p1jmeupaoRFm-18" value="Cancelar Reserva" style="shape=ellipse;html=1;strokeWidth=3;fontStyle=1;whiteSpace=wrap;align=center;perimeter=ellipsePerimeter;" vertex="1" parent="1">
          <mxGeometry x="1410" y="40" width="120" height="60" as="geometry" />
        </mxCell>
        <mxCell id="qHdUSr_5p1jmeupaoRFm-49" value="Programar Horarios" style="ellipse;whiteSpace=wrap;html=1;" vertex="1" parent="1">
          <mxGeometry x="1450" y="150" width="140" height="70" as="geometry" />
        </mxCell>
        <mxCell id="qHdUSr_5p1jmeupaoRFm-74" value="" style="edgeStyle=none;html=1;endArrow=open;verticalAlign=bottom;dashed=1;labelBackgroundColor=none;rounded=0;" edge="1" parent="1" source="qHdUSr_5p1jmeupaoRFm-72" target="qHdUSr_5p1jmeupaoRFm-49">
          <mxGeometry width="160" relative="1" as="geometry">
            <mxPoint x="1000" y="470" as="sourcePoint" />
            <mxPoint x="1160" y="470" as="targetPoint" />
          </mxGeometry>
        </mxCell>
        <mxCell id="qHdUSr_5p1jmeupaoRFm-47" value="" style="edgeStyle=none;html=1;startArrow=open;endArrow=none;startSize=12;verticalAlign=bottom;dashed=1;labelBackgroundColor=none;rounded=0;exitX=0.036;exitY=0.356;exitDx=0;exitDy=0;exitPerimeter=0;" edge="1" parent="1" source="qHdUSr_5p1jmeupaoRFm-49" target="qHdUSr_5p1jmeupaoRFm-31">
          <mxGeometry width="160" relative="1" as="geometry">
            <mxPoint x="490" y="590" as="sourcePoint" />
            <mxPoint x="650" y="590" as="targetPoint" />
          </mxGeometry>
        </mxCell>
        <mxCell id="qHdUSr_5p1jmeupaoRFm-31" value="Crear clases" style="ellipse;whiteSpace=wrap;html=1;" vertex="1" parent="1">
          <mxGeometry x="1171" y="100" width="140" height="70" as="geometry" />
        </mxCell>
        <mxCell id="qHdUSr_5p1jmeupaoRFm-75" value="" style="edgeStyle=none;html=1;startArrow=open;endArrow=none;startSize=12;verticalAlign=bottom;dashed=1;labelBackgroundColor=none;rounded=0;" edge="1" parent="1" source="qHdUSr_5p1jmeupaoRFm-72" target="qHdUSr_5p1jmeupaoRFm-109">
          <mxGeometry width="160" relative="1" as="geometry">
            <mxPoint x="910" y="450" as="sourcePoint" />
            <mxPoint x="1070" y="450" as="targetPoint" />
          </mxGeometry>
        </mxCell>
        <mxCell id="qHdUSr_5p1jmeupaoRFm-71" value="Borrar clase" style="ellipse;whiteSpace=wrap;html=1;" vertex="1" parent="1">
          <mxGeometry x="1107" y="415" width="140" height="70" as="geometry" />
        </mxCell>
        <mxCell id="qHdUSr_5p1jmeupaoRFm-72" value="Modificar clase" style="ellipse;whiteSpace=wrap;html=1;" vertex="1" parent="1">
          <mxGeometry x="1400" y="340" width="140" height="70" as="geometry" />
        </mxCell>
        <mxCell id="qHdUSr_5p1jmeupaoRFm-59" value="Dashboard Administrador" style="ellipse;whiteSpace=wrap;html=1;" vertex="1" parent="1">
          <mxGeometry x="670" y="200" width="140" height="70" as="geometry" />
        </mxCell>
        <mxCell id="qHdUSr_5p1jmeupaoRFm-84" value="" style="edgeStyle=none;html=1;startArrow=open;endArrow=none;startSize=12;verticalAlign=bottom;dashed=1;labelBackgroundColor=none;rounded=0;" edge="1" parent="1" source="qHdUSr_5p1jmeupaoRFm-86" target="qHdUSr_5p1jmeupaoRFm-59">
          <mxGeometry width="160" relative="1" as="geometry">
            <mxPoint x="600" y="690" as="sourcePoint" />
            <mxPoint x="760" y="690" as="targetPoint" />
          </mxGeometry>
        </mxCell>
        <mxCell id="qHdUSr_5p1jmeupaoRFm-89" value="" style="edgeStyle=none;html=1;startArrow=open;endArrow=none;startSize=12;verticalAlign=bottom;dashed=1;labelBackgroundColor=none;rounded=0;" edge="1" parent="1" source="qHdUSr_5p1jmeupaoRFm-33" target="qHdUSr_5p1jmeupaoRFm-59">
          <mxGeometry width="160" relative="1" as="geometry">
            <mxPoint x="780" y="730" as="sourcePoint" />
            <mxPoint x="940" y="730" as="targetPoint" />
          </mxGeometry>
        </mxCell>
        <mxCell id="qHdUSr_5p1jmeupaoRFm-55" value="Creacion del nuevo&lt;div&gt;usuario&lt;/div&gt;" style="ellipse;whiteSpace=wrap;html=1;" vertex="1" parent="1">
          <mxGeometry x="390" y="410" width="140" height="70" as="geometry" />
        </mxCell>
        <mxCell id="qHdUSr_5p1jmeupaoRFm-87" value="&amp;lt;&amp;lt;extend&amp;gt;&amp;gt;" style="edgeStyle=none;html=1;startArrow=open;endArrow=none;startSize=12;verticalAlign=bottom;dashed=1;labelBackgroundColor=none;rounded=0;exitX=1;exitY=0.5;exitDx=0;exitDy=0;entryX=0.012;entryY=0.31;entryDx=0;entryDy=0;entryPerimeter=0;" edge="1" parent="1" source="qHdUSr_5p1jmeupaoRFm-55" target="qHdUSr_5p1jmeupaoRFm-86">
          <mxGeometry width="160" relative="1" as="geometry">
            <mxPoint x="520" y="730" as="sourcePoint" />
            <mxPoint x="680" y="730" as="targetPoint" />
          </mxGeometry>
        </mxCell>
        <mxCell id="qHdUSr_5p1jmeupaoRFm-86" value="Gestion de usuarios" style="ellipse;whiteSpace=wrap;html=1;" vertex="1" parent="1">
          <mxGeometry x="650" y="440" width="140" height="70" as="geometry" />
        </mxCell>
        <mxCell id="qHdUSr_5p1jmeupaoRFm-101" value="&amp;lt;&amp;lt;extend&amp;gt;&amp;gt;" style="edgeStyle=none;html=1;startArrow=open;endArrow=none;startSize=12;verticalAlign=bottom;dashed=1;labelBackgroundColor=none;rounded=0;entryX=0.432;entryY=1.014;entryDx=0;entryDy=0;entryPerimeter=0;" edge="1" parent="1" source="qHdUSr_5p1jmeupaoRFm-90" target="qHdUSr_5p1jmeupaoRFm-86">
          <mxGeometry width="160" relative="1" as="geometry">
            <mxPoint x="590" y="788.75" as="sourcePoint" />
            <mxPoint x="750" y="788.75" as="targetPoint" />
          </mxGeometry>
        </mxCell>
        <mxCell id="qHdUSr_5p1jmeupaoRFm-83" value="&amp;lt;&amp;lt;extend&amp;gt;&amp;gt;" style="edgeStyle=none;html=1;startArrow=open;endArrow=none;startSize=12;verticalAlign=bottom;dashed=1;labelBackgroundColor=none;rounded=0;exitX=0.079;exitY=0.314;exitDx=0;exitDy=0;exitPerimeter=0;" edge="1" parent="1" source="qHdUSr_5p1jmeupaoRFm-53" target="qHdUSr_5p1jmeupaoRFm-86">
          <mxGeometry width="160" relative="1" as="geometry">
            <mxPoint x="770" y="700" as="sourcePoint" />
            <mxPoint x="930" y="700" as="targetPoint" />
          </mxGeometry>
        </mxCell>
        <mxCell id="qHdUSr_5p1jmeupaoRFm-90" value="Edicion de usuario" style="ellipse;whiteSpace=wrap;html=1;" vertex="1" parent="1">
          <mxGeometry x="640" y="650" width="140" height="70" as="geometry" />
        </mxCell>
        <mxCell id="qHdUSr_5p1jmeupaoRFm-33" value="Generacion de reportes" style="ellipse;whiteSpace=wrap;html=1;" vertex="1" parent="1">
          <mxGeometry x="910" y="280" width="140" height="70" as="geometry" />
        </mxCell>
        <mxCell id="qHdUSr_5p1jmeupaoRFm-53" value="Baja de usuario" style="ellipse;whiteSpace=wrap;html=1;" vertex="1" parent="1">
          <mxGeometry x="827" y="630" width="140" height="70" as="geometry" />
        </mxCell>
        <mxCell id="qHdUSr_5p1jmeupaoRFm-109" value="Gestion de clases" style="ellipse;whiteSpace=wrap;html=1;" vertex="1" parent="1">
          <mxGeometry x="967" y="150" width="140" height="70" as="geometry" />
        </mxCell>
        <mxCell id="qHdUSr_5p1jmeupaoRFm-110" value="" style="edgeStyle=none;html=1;startArrow=open;endArrow=none;startSize=12;verticalAlign=bottom;dashed=1;labelBackgroundColor=none;rounded=0;exitX=0;exitY=0.5;exitDx=0;exitDy=0;entryX=1;entryY=0.5;entryDx=0;entryDy=0;" edge="1" parent="1" source="qHdUSr_5p1jmeupaoRFm-31" target="qHdUSr_5p1jmeupaoRFm-109">
          <mxGeometry width="160" relative="1" as="geometry">
            <mxPoint x="1231" y="404" as="sourcePoint" />
            <mxPoint x="1160" y="160" as="targetPoint" />
          </mxGeometry>
        </mxCell>
        <mxCell id="qHdUSr_5p1jmeupaoRFm-111" value="" style="edgeStyle=none;html=1;startArrow=open;endArrow=none;startSize=12;verticalAlign=bottom;dashed=1;labelBackgroundColor=none;rounded=0;entryX=0.77;entryY=0.955;entryDx=0;entryDy=0;entryPerimeter=0;" edge="1" parent="1" source="qHdUSr_5p1jmeupaoRFm-71" target="qHdUSr_5p1jmeupaoRFm-109">
          <mxGeometry width="160" relative="1" as="geometry">
            <mxPoint x="1241" y="414" as="sourcePoint" />
            <mxPoint x="1170" y="170" as="targetPoint" />
          </mxGeometry>
        </mxCell>
      </root>
    </mxGraphModel>
  </diagram>
</mxfile>
